<?xml version="1.0" encoding="iso-8859-1"?>
<!-- Generator: Adobe Illustrator 19.0.0, SVG Export Plug-In . SVG Version: 6.00 Build 0)  -->
<svg version="1.1" id="Capa_1" xmlns="http://www.w3.org/2000/svg" xmlns:xlink="http://www.w3.org/1999/xlink" x="0px" y="0px"
	 viewBox="0 0 420 420" style="enable-background:new 0 0 420 420;" xml:space="preserve">
<g id="XMLID_1293_">
	<path id="XMLID_1294_" style="fill:#CDCDD0;" d="M140,65H0v290h140V65z M110,315H30v-30h80V315z M110,255H30v-30h80V255z M110,195
		H30v-90h80V195z"/>
	<rect id="XMLID_1299_" y="35" style="fill:#CDCDD0;" width="140" height="0.001"/>
	<rect id="XMLID_1300_" x="210" y="-35" style="fill:#DEDDE0;" width="0.001" height="140"/>
	<path id="XMLID_1301_" style="fill:#DEDDE0;" d="M140,355h140V65H140V355z M170,105h80v30h-80V105z M170,165h80v30h-80V165z
		 M170,225h80v90h-80V225z"/>
	<path id="XMLID_1306_" style="fill:#CDCDD0;" d="M280,355h140V65H280V355z M310,105h80v90h-80V105z M310,225h80v30h-80V225z
		 M310,285h80v30h-80V285z"/>
	<rect id="XMLID_1311_" x="350" y="-35" style="fill:#CDCDD0;" width="0.001" height="140"/>
	<rect id="XMLID_1312_" y="35" style="fill:#78B9EB;" width="140" height="30"/>
	<rect id="XMLID_1313_" x="280" y="35" style="fill:#78B9EB;" width="140" height="30"/>
	<rect id="XMLID_1314_" x="140" y="35" style="fill:#5A8BB0;" width="140" height="30"/>
	<rect id="XMLID_1315_" y="355" style="fill:#78B9EB;" width="140" height="30"/>
	<rect id="XMLID_1316_" x="280" y="355" style="fill:#78B9EB;" width="140" height="30"/>
	<rect id="XMLID_1317_" x="140" y="355" style="fill:#5A8BB0;" width="140" height="30"/>
	<rect id="XMLID_1318_" x="30" y="105" style="fill:#FFFFFF;" width="80" height="90"/>
	<rect id="XMLID_1319_" x="30" y="225" style="fill:#FFFFFF;" width="80" height="30"/>
	<rect id="XMLID_1320_" x="30" y="285" style="fill:#FFFFFF;" width="80" height="30"/>
	<rect id="XMLID_1321_" x="170" y="105" style="fill:#FFFFFF;" width="80" height="30"/>
	<rect id="XMLID_1322_" x="170" y="165" style="fill:#FFFFFF;" width="80" height="30"/>
	<rect id="XMLID_1323_" x="170" y="225" style="fill:#FFFFFF;" width="80" height="90"/>
	<rect id="XMLID_1324_" x="310" y="105" style="fill:#FFFFFF;" width="80" height="90"/>
	<rect id="XMLID_1325_" x="310" y="225" style="fill:#FFFFFF;" width="80" height="30"/>
	<rect id="XMLID_1326_" x="310" y="285" style="fill:#FFFFFF;" width="80" height="30"/>
</g>
<g>
</g>
<g>
</g>
<g>
</g>
<g>
</g>
<g>
</g>
<g>
</g>
<g>
</g>
<g>
</g>
<g>
</g>
<g>
</g>
<g>
</g>
<g>
</g>
<g>
</g>
<g>
</g>
<g>
</g>
</svg>
